<svg width="35" height="35" viewBox="0 0 35 35" fill="none" xmlns="http://www.w3.org/2000/svg">
<rect width="35" height="35" rx="17.5" fill="#215FFF"/>
<path opacity="0.6" d="M16.9929 21.8303L23.9941 17.6716L16.9929 14.4784L10 17.6716L16.9929 21.8303Z" fill="black"/>
<path d="M16.9938 14.4789V6.00049L10.001 17.6721L16.9938 21.8308V14.4789Z" fill="black"/>
<path d="M16.9938 14.4789V6.00049L10.001 17.6721L16.9938 21.8308V14.4789Z" fill="white"/>
<path d="M16.9932 21.8303L23.9945 17.6716L16.9932 6V14.4784V21.8303Z" fill="black"/>
<path d="M16.9932 21.8303L23.9945 17.6716L16.9932 6V14.4784V21.8303Z" fill="white"/>
<path d="M16.9929 23.16L10 19.0098L16.9929 28.9196V23.16Z" fill="black"/>
<path d="M16.9929 23.16L10 19.0098L16.9929 28.9196V23.16Z" fill="white"/>
<path d="M23.9945 19.0098L16.9932 23.16V28.9196L23.9945 19.0098Z" fill="black"/>
<path d="M23.9945 19.0098L16.9932 23.16V28.9196L23.9945 19.0098Z" fill="white"/>
</svg>
