<svg width="127" height="39" viewBox="0 0 127 39" fill="none" xmlns="http://www.w3.org/2000/svg">
<path fill-rule="evenodd" clip-rule="evenodd" d="M15.9373 37.5795C26.5108 40.1278 37.2187 33.9087 39.8545 23.6898C42.4903 13.4702 36.0568 3.11832 25.484 0.57058C14.9136 -1.97716 4.20565 4.24256 1.57107 14.4627C-1.06598 24.6811 5.36815 35.0318 15.9373 37.5795ZM25.0741 11.5421C27.808 12.4524 29.8074 13.8168 29.4145 16.355C29.1302 18.2131 28.0645 19.1126 26.6498 19.4279C28.5924 20.4055 29.581 21.9047 28.6393 24.5037C27.4707 27.7316 24.6942 28.004 21.002 27.3287L20.1059 30.7997L17.9407 30.2782L18.825 26.8536C18.2638 26.7188 17.6903 26.5758 17.0995 26.4208L16.212 29.8615L14.0492 29.3399L14.9453 25.8622C14.7432 25.8122 14.5398 25.7609 14.335 25.7093C14.0273 25.6317 13.7164 25.5534 13.4017 25.4772L10.5839 24.7982L11.6589 22.4025C11.6589 22.4025 13.2543 22.8126 13.2327 22.7822C13.8457 22.9288 14.1177 22.5426 14.225 22.285L15.641 16.7979C15.6941 16.8103 15.7461 16.8229 15.7963 16.835C15.8213 16.8411 15.8458 16.847 15.8698 16.8528C15.7834 16.8194 15.7051 16.7979 15.6447 16.783L16.6548 12.866C16.6813 12.4213 16.5229 11.8604 15.6459 11.6488C15.6798 11.6267 14.0733 11.2709 14.0733 11.2709L14.6493 9.03549L17.6354 9.75619L17.6329 9.76692C18.0819 9.87481 18.5444 9.97733 19.0156 10.0811L19.903 6.64394L22.0671 7.16553L21.1975 10.5353C21.7784 10.6635 22.3631 10.7928 22.9323 10.9299L23.7957 7.5822L25.961 8.10379L25.0741 11.5421ZM18.2253 24.0082C19.992 24.4592 23.8534 25.445 24.4673 23.0606C25.0963 20.6225 21.3515 19.8103 19.5241 19.414C19.3199 19.3697 19.1397 19.3306 18.9922 19.295L17.8031 23.9023C17.9243 23.9313 18.0663 23.9676 18.2253 24.0082ZM19.8913 17.2759C21.3643 17.6558 24.5773 18.4847 25.137 16.3175C25.7086 14.1008 22.5857 13.4325 21.0606 13.1062C20.889 13.0695 20.7377 13.0371 20.6141 13.0073L19.5361 17.186C19.6379 17.2105 19.7574 17.2413 19.8913 17.2759Z" fill="white"/>
<path fill-rule="evenodd" clip-rule="evenodd" d="M15.9373 37.5795C26.5108 40.1278 37.2187 33.9087 39.8545 23.6898C42.4903 13.4702 36.0568 3.11832 25.484 0.57058C14.9136 -1.97716 4.20565 4.24256 1.57107 14.4627C-1.06598 24.6811 5.36815 35.0318 15.9373 37.5795ZM25.0741 11.5421C27.808 12.4524 29.8074 13.8168 29.4145 16.355C29.1302 18.2131 28.0645 19.1126 26.6498 19.4279C28.5924 20.4055 29.581 21.9047 28.6393 24.5037C27.4707 27.7316 24.6942 28.004 21.002 27.3287L20.1059 30.7997L17.9407 30.2782L18.825 26.8536C18.2638 26.7188 17.6903 26.5758 17.0995 26.4208L16.212 29.8615L14.0492 29.3399L14.9453 25.8622C14.7432 25.8122 14.5398 25.7609 14.335 25.7093C14.0273 25.6317 13.7164 25.5534 13.4017 25.4772L10.5839 24.7982L11.6589 22.4025C11.6589 22.4025 13.2543 22.8126 13.2327 22.7822C13.8457 22.9288 14.1177 22.5426 14.225 22.285L15.641 16.7979C15.6941 16.8103 15.7461 16.8229 15.7963 16.835C15.8213 16.8411 15.8458 16.847 15.8698 16.8528C15.7834 16.8194 15.7051 16.7979 15.6447 16.783L16.6548 12.866C16.6813 12.4213 16.5229 11.8604 15.6459 11.6488C15.6798 11.6267 14.0733 11.2709 14.0733 11.2709L14.6493 9.03549L17.6354 9.75619L17.6329 9.76692C18.0819 9.87481 18.5444 9.97733 19.0156 10.0811L19.903 6.64394L22.0671 7.16553L21.1975 10.5353C21.7784 10.6635 22.3631 10.7928 22.9323 10.9299L23.7957 7.5822L25.961 8.10379L25.0741 11.5421ZM18.2253 24.0082C19.992 24.4592 23.8534 25.445 24.4673 23.0606C25.0963 20.6225 21.3515 19.8103 19.5241 19.414C19.3199 19.3697 19.1397 19.3306 18.9922 19.295L17.8031 23.9023C17.9243 23.9313 18.0663 23.9676 18.2253 24.0082ZM19.8913 17.2759C21.3643 17.6558 24.5773 18.4847 25.137 16.3175C25.7086 14.1008 22.5857 13.4325 21.0606 13.1062C20.889 13.0695 20.7377 13.0371 20.6141 13.0073L19.5361 17.186C19.6379 17.2105 19.7574 17.2413 19.8913 17.2759Z" fill="#215FFF"/>
<path fill-rule="evenodd" clip-rule="evenodd" d="M15.9373 37.5795C26.5108 40.1278 37.2187 33.9087 39.8545 23.6898C42.4903 13.4702 36.0568 3.11832 25.484 0.57058C14.9136 -1.97716 4.20565 4.24256 1.57107 14.4627C-1.06598 24.6811 5.36815 35.0318 15.9373 37.5795ZM25.0741 11.5421C27.808 12.4524 29.8074 13.8168 29.4145 16.355C29.1302 18.2131 28.0645 19.1126 26.6498 19.4279C28.5924 20.4055 29.581 21.9047 28.6393 24.5037C27.4707 27.7316 24.6942 28.004 21.002 27.3287L20.1059 30.7997L17.9407 30.2782L18.825 26.8536C18.2638 26.7188 17.6903 26.5758 17.0995 26.4208L16.212 29.8615L14.0492 29.3399L14.9453 25.8622C14.7432 25.8122 14.5398 25.7609 14.335 25.7093C14.0273 25.6317 13.7164 25.5534 13.4017 25.4772L10.5839 24.7982L11.6589 22.4025C11.6589 22.4025 13.2543 22.8126 13.2327 22.7822C13.8457 22.9288 14.1177 22.5426 14.225 22.285L15.641 16.7979C15.6941 16.8103 15.7461 16.8229 15.7963 16.835C15.8213 16.8411 15.8458 16.847 15.8698 16.8528C15.7834 16.8194 15.7051 16.7979 15.6447 16.783L16.6548 12.866C16.6813 12.4213 16.5229 11.8604 15.6459 11.6488C15.6798 11.6267 14.0733 11.2709 14.0733 11.2709L14.6493 9.03549L17.6354 9.75619L17.6329 9.76692C18.0819 9.87481 18.5444 9.97733 19.0156 10.0811L19.903 6.64394L22.0671 7.16553L21.1975 10.5353C21.7784 10.6635 22.3631 10.7928 22.9323 10.9299L23.7957 7.5822L25.961 8.10379L25.0741 11.5421ZM18.2253 24.0082C19.992 24.4592 23.8534 25.445 24.4673 23.0606C25.0963 20.6225 21.3515 19.8103 19.5241 19.414C19.3199 19.3697 19.1397 19.3306 18.9922 19.295L17.8031 23.9023C17.9243 23.9313 18.0663 23.9676 18.2253 24.0082ZM19.8913 17.2759C21.3643 17.6558 24.5773 18.4847 25.137 16.3175C25.7086 14.1008 22.5857 13.4325 21.0606 13.1062C20.889 13.0695 20.7377 13.0371 20.6141 13.0073L19.5361 17.186C19.6379 17.2105 19.7574 17.2413 19.8913 17.2759Z" fill="#FF7E21"/>
<path d="M61.1871 15.3065C61.9872 15.3065 62.6784 15.4451 63.2593 15.7172C63.8429 15.9919 64.3245 16.3621 64.7108 16.8275C65.0919 17.2954 65.3755 17.8423 65.5587 18.469C65.7406 19.0975 65.8319 19.7731 65.8319 20.4963C65.8319 21.6073 65.6213 22.6569 65.1961 23.6463C64.7709 24.6372 64.1941 25.4966 63.4603 26.2297C62.7271 26.9619 61.8614 27.5392 60.8631 27.9656C59.8663 28.3924 58.7826 28.6058 57.619 28.6058C57.4686 28.6058 57.2041 28.6016 56.8304 28.5942C56.4567 28.5867 56.0272 28.5494 55.5463 28.4866C55.0622 28.4213 54.5504 28.3247 54.01 28.1954C53.4698 28.0685 52.9568 27.8905 52.4736 27.6647L56.7937 10.1191L60.663 9.53943L59.1162 15.7657C59.4473 15.6215 59.7809 15.5097 60.1139 15.4284C60.4472 15.3482 60.8048 15.3065 61.1871 15.3065ZM57.9415 25.6388C58.5242 25.6388 59.0733 25.5002 59.5892 25.2281C60.1065 24.9557 60.5529 24.588 60.9269 24.13C61.3009 23.6698 61.5969 23.1516 61.8127 22.5726C62.0285 21.9935 62.1377 21.3895 62.1377 20.761C62.1377 19.9888 62.0042 19.3866 61.7381 18.9512C61.472 18.5176 60.9796 18.2994 60.2647 18.2994C60.0303 18.2994 59.7285 18.3426 59.3542 18.4198C58.9787 18.5018 58.6426 18.6719 58.3414 18.9279L56.6944 25.5401C56.7937 25.5571 56.8816 25.5732 56.9565 25.5884C57.0299 25.6048 57.1109 25.6164 57.1917 25.6245C57.2771 25.6337 57.3749 25.6385 57.4929 25.6385C57.611 25.6385 57.7587 25.6388 57.9415 25.6388Z" fill="white"/>
<path d="M69.8442 28.2695H66.1484L69.2695 15.5752H72.9905L69.8442 28.2695ZM71.6426 14.0285C71.1267 14.0285 70.659 13.8801 70.2441 13.5827C69.8257 13.287 69.6185 12.832 69.6185 12.2187C69.6185 11.8813 69.6894 11.5648 69.83 11.2662C69.9727 10.9682 70.1593 10.7116 70.393 10.4935C70.6264 10.2772 70.8967 10.1043 71.2038 9.97407C71.5128 9.84593 71.8414 9.78186 72.1917 9.78186C72.7072 9.78186 73.1724 9.93027 73.5889 10.2277C74.0039 10.5266 74.2126 10.9816 74.2126 11.5917C74.2126 11.9302 74.142 12.2479 74.0002 12.5459C73.8593 12.8439 73.6728 13.1005 73.4391 13.3186C73.2075 13.5353 72.9347 13.7075 72.6282 13.8366C72.319 13.9668 71.9916 14.0285 71.6426 14.0285Z" fill="white"/>
<path d="M76.2293 12.4125L80.1002 11.8329L79.1496 15.5747H83.2952L82.5466 18.5184H78.426L77.3284 22.9588C77.2273 23.3289 77.17 23.6746 77.1539 23.9958C77.1357 24.3186 77.178 24.5957 77.2779 24.8291C77.3771 25.063 77.5557 25.2433 77.8146 25.3709C78.0724 25.5005 78.4414 25.5658 78.9255 25.5658C79.3241 25.5658 79.7126 25.5291 80.0881 25.4564C80.4615 25.3849 80.8398 25.2853 81.2227 25.1551L81.4983 27.9075C80.9989 28.0845 80.4581 28.2368 79.8754 28.365C79.2918 28.4949 78.6008 28.5575 77.8023 28.5575C76.6542 28.5575 75.7641 28.3927 75.1299 28.0646C74.4966 27.7341 74.0489 27.2826 73.781 26.711C73.5168 26.1415 73.3987 25.485 73.4317 24.7453C73.4659 24.0039 73.5815 23.2246 73.781 22.4039L76.2293 12.4125Z" fill="white"/>
<path d="M83.1333 23.2C83.1333 22.1066 83.3164 21.0755 83.6824 20.1102C84.0478 19.1441 84.574 18.2992 85.257 17.5742C85.9374 16.8527 86.7664 16.2811 87.7423 15.8615C88.7134 15.4443 89.8008 15.2339 90.9993 15.2339C91.7494 15.2339 92.4193 15.3024 93.0088 15.4398C93.6008 15.5784 94.1363 15.7575 94.6207 15.9822L93.3461 18.7835C93.0131 18.653 92.6675 18.5379 92.3102 18.4336C91.9526 18.3272 91.516 18.276 90.9996 18.276C89.766 18.276 88.7908 18.6869 88.0651 19.5061C87.3421 20.326 86.9779 21.4295 86.9779 22.8138C86.9779 23.6342 87.1611 24.2975 87.5286 24.8051C87.8943 25.3126 88.5698 25.565 89.5505 25.565C90.0345 25.565 90.5016 25.5161 90.949 25.4207C91.3998 25.3242 91.7978 25.2026 92.1483 25.059L92.4243 27.9306C91.9569 28.1058 91.4414 28.2641 90.8759 28.4026C90.3093 28.5364 89.6347 28.6059 88.8525 28.6059C87.8199 28.6059 86.9459 28.4598 86.2309 28.1723C85.5156 27.8802 84.9246 27.4925 84.459 27.0014C83.991 26.5091 83.655 25.9342 83.4472 25.2744C83.2394 24.6152 83.1333 23.9226 83.1333 23.2Z" fill="white"/>
<path d="M99.5505 28.6059C98.6685 28.6059 97.9023 28.4759 97.2524 28.2188C96.6043 27.9616 96.0675 27.6007 95.643 27.1328C95.2178 26.6673 94.8997 26.1157 94.6817 25.48C94.4637 24.8447 94.3589 24.1411 94.3589 23.3701C94.3589 22.4031 94.5195 21.4364 94.8442 20.4723C95.1673 19.5062 95.6467 18.6381 96.2812 17.8665C96.9108 17.0938 97.6874 16.462 98.6019 15.9694C99.5154 15.48 100.566 15.2339 101.746 15.2339C102.612 15.2339 103.375 15.3641 104.033 15.6213C104.689 15.8779 105.229 16.2418 105.656 16.7072C106.079 17.1751 106.4 17.7244 106.616 18.3609C106.833 18.9951 106.94 19.7005 106.94 20.472C106.94 21.4361 106.782 22.4028 106.467 23.3698C106.152 24.3321 105.685 25.2023 105.069 25.9756C104.453 26.7472 103.684 27.3787 102.759 27.8692C101.836 28.3597 100.766 28.6059 99.5505 28.6059ZM101.398 18.2763C100.85 18.2763 100.365 18.43 99.9507 18.7337C99.5345 19.041 99.1849 19.4272 98.9031 19.893C98.6182 20.3608 98.407 20.871 98.2643 21.4256C98.1228 21.9814 98.0534 22.5068 98.0534 23.006C98.0534 23.8115 98.1878 24.4388 98.452 24.8903C98.72 25.3394 99.2012 25.5653 99.9008 25.5653C100.451 25.5653 100.932 25.4127 101.35 25.1058C101.763 24.8009 102.113 24.4144 102.397 23.9477C102.68 23.4822 102.893 22.9705 103.036 22.415C103.176 21.861 103.247 21.3327 103.247 20.8344C103.247 20.0309 103.113 19.4021 102.846 18.9513C102.58 18.5022 102.097 18.2763 101.398 18.2763Z" fill="white"/>
<path d="M110.966 28.2695H107.268L110.389 15.5752H114.111L110.966 28.2695ZM112.762 14.0285C112.246 14.0285 111.779 13.8801 111.365 13.5827C110.949 13.287 110.739 12.832 110.739 12.2187C110.739 11.8813 110.811 11.5648 110.952 11.2662C111.093 10.9682 111.281 10.7116 111.515 10.4935C111.747 10.2772 112.02 10.1043 112.326 9.97407C112.633 9.84593 112.962 9.78186 113.311 9.78186C113.828 9.78186 114.294 9.93027 114.71 10.2277C115.126 10.5266 115.336 10.9816 115.336 11.5917C115.336 11.9302 115.261 12.2479 115.122 12.5459C114.982 12.8439 114.794 13.1005 114.561 13.3186C114.327 13.5353 114.058 13.7075 113.75 13.8366C113.441 13.9668 113.113 14.0285 112.762 14.0285Z" fill="white"/>
<path d="M116.776 16.1529C117.056 16.0736 117.37 15.9782 117.71 15.8745C118.052 15.7708 118.434 15.6743 118.861 15.5872C119.283 15.4975 119.759 15.4248 120.283 15.3685C120.807 15.311 121.404 15.283 122.067 15.283C124.016 15.283 125.36 15.8316 126.102 16.9256C126.843 18.0196 126.971 19.5168 126.49 21.4145L124.79 28.2687H121.07L122.718 21.5587C122.818 21.1397 122.897 20.7347 122.955 20.339C123.014 19.9468 123.011 19.6011 122.942 19.3019C122.876 19.0063 122.722 18.7643 122.482 18.5769C122.238 18.3924 121.869 18.2997 121.369 18.2997C120.888 18.2997 120.397 18.3498 119.897 18.4463L117.475 28.2684H113.753L116.776 16.1529Z" fill="white"/>
</svg>
