<svg width="122" height="37" viewBox="0 0 122 37" fill="none" xmlns="http://www.w3.org/2000/svg">
<path fill-rule="evenodd" clip-rule="evenodd" d="M14.5061 36.4461C24.7606 38.9176 35.1455 32.8861 37.7018 22.9754C40.2581 13.0641 34.0187 3.02449 23.7648 0.553605C13.5133 -1.91728 3.12836 4.11481 0.57326 14.0267C-1.98424 23.9368 4.2558 33.9752 14.5061 36.4461ZM23.3672 11.1942C26.0186 12.077 27.9577 13.4003 27.5767 15.8619C27.301 17.6639 26.2674 18.5363 24.8954 18.8421C26.7794 19.7902 27.7382 21.2442 26.8249 23.7648C25.6915 26.8953 22.9988 27.1595 19.418 26.5045L18.5489 29.8709L16.449 29.3651L17.3066 26.0438C16.7624 25.9131 16.2061 25.7744 15.6331 25.624L14.7725 28.9609L12.6749 28.4551L13.544 25.0823C13.3479 25.0338 13.1506 24.9841 12.952 24.934C12.6536 24.8588 12.3521 24.7828 12.0469 24.7089L9.31417 24.0504L10.3567 21.7269C10.3567 21.7269 11.904 22.1247 11.883 22.0952C12.4776 22.2374 12.7413 21.8628 12.8454 21.6131L14.2186 16.2915C14.2701 16.3034 14.3205 16.3156 14.3691 16.3274C14.3934 16.3333 14.4172 16.3391 14.4405 16.3447C14.3568 16.3123 14.2808 16.2915 14.2222 16.277L15.2019 12.4782C15.2276 12.0469 15.0739 11.5029 14.2234 11.2977C14.2563 11.2763 12.6983 10.9311 12.6983 10.9311L13.2569 8.76319L16.1529 9.46215L16.1505 9.47256C16.5859 9.5772 17.0345 9.67662 17.4915 9.77721L18.3521 6.44378L20.4509 6.94964L19.6075 10.2178C20.171 10.342 20.738 10.4675 21.29 10.6005L22.1274 7.35375L24.2273 7.8596L23.3672 11.1942ZM16.725 23.2842C18.4385 23.7217 22.1833 24.6777 22.7787 22.3652C23.3888 20.0007 19.7569 19.213 17.9846 18.8286C17.7866 18.7856 17.6118 18.7477 17.4687 18.7132L16.3156 23.1815C16.4331 23.2097 16.5708 23.2449 16.725 23.2842ZM18.3407 16.755C19.7693 17.1235 22.8854 17.9273 23.4282 15.8255C23.9825 13.6757 20.9539 13.0276 19.4748 12.7111C19.3084 12.6755 19.1616 12.6441 19.0418 12.6152L17.9963 16.6678C18.095 16.6916 18.2109 16.7215 18.3407 16.755Z" fill="white"/>
<path fill-rule="evenodd" clip-rule="evenodd" d="M14.5061 36.4461C24.7606 38.9176 35.1455 32.8861 37.7018 22.9754C40.2581 13.0641 34.0187 3.02449 23.7648 0.553605C13.5133 -1.91728 3.12836 4.11481 0.57326 14.0267C-1.98424 23.9368 4.2558 33.9752 14.5061 36.4461ZM23.3672 11.1942C26.0186 12.077 27.9577 13.4003 27.5767 15.8619C27.301 17.6639 26.2674 18.5363 24.8954 18.8421C26.7794 19.7902 27.7382 21.2442 26.8249 23.7648C25.6915 26.8953 22.9988 27.1595 19.418 26.5045L18.5489 29.8709L16.449 29.3651L17.3066 26.0438C16.7624 25.9131 16.2061 25.7744 15.6331 25.624L14.7725 28.9609L12.6749 28.4551L13.544 25.0823C13.3479 25.0338 13.1506 24.9841 12.952 24.934C12.6536 24.8588 12.3521 24.7828 12.0469 24.7089L9.31417 24.0504L10.3567 21.7269C10.3567 21.7269 11.904 22.1247 11.883 22.0952C12.4776 22.2374 12.7413 21.8628 12.8454 21.6131L14.2186 16.2915C14.2701 16.3034 14.3205 16.3156 14.3691 16.3274C14.3934 16.3333 14.4172 16.3391 14.4405 16.3447C14.3568 16.3123 14.2808 16.2915 14.2222 16.277L15.2019 12.4782C15.2276 12.0469 15.0739 11.5029 14.2234 11.2977C14.2563 11.2763 12.6983 10.9311 12.6983 10.9311L13.2569 8.76319L16.1529 9.46215L16.1505 9.47256C16.5859 9.5772 17.0345 9.67662 17.4915 9.77721L18.3521 6.44378L20.4509 6.94964L19.6075 10.2178C20.171 10.342 20.738 10.4675 21.29 10.6005L22.1274 7.35375L24.2273 7.8596L23.3672 11.1942ZM16.725 23.2842C18.4385 23.7217 22.1833 24.6777 22.7787 22.3652C23.3888 20.0007 19.7569 19.213 17.9846 18.8286C17.7866 18.7856 17.6118 18.7477 17.4687 18.7132L16.3156 23.1815C16.4331 23.2097 16.5708 23.2449 16.725 23.2842ZM18.3407 16.755C19.7693 17.1235 22.8854 17.9273 23.4282 15.8255C23.9825 13.6757 20.9539 13.0276 19.4748 12.7111C19.3084 12.6755 19.1616 12.6441 19.0418 12.6152L17.9963 16.6678C18.095 16.6916 18.2109 16.7215 18.3407 16.755Z" fill="#215FFF"/>
<path d="M58.3911 14.8449C59.167 14.8449 59.8374 14.9793 60.4007 15.2432C60.9668 15.5097 61.4338 15.8686 61.8085 16.3201C62.1781 16.7739 62.4531 17.3042 62.6308 17.912C62.8072 18.5216 62.8957 19.1768 62.8957 19.8782C62.8957 20.9557 62.6915 21.9736 62.2791 22.9332C61.8668 23.8941 61.3073 24.7277 60.5957 25.4387C59.8846 26.1488 59.045 26.7086 58.0768 27.1222C57.1101 27.5361 56.0591 27.743 54.9306 27.743C54.7847 27.743 54.5282 27.739 54.1658 27.7318C53.8033 27.7245 53.3868 27.6884 52.9204 27.6274C52.4509 27.5641 51.9546 27.4705 51.4304 27.345C50.9065 27.2219 50.409 27.0494 49.9404 26.8303L54.1302 9.81398L57.8828 9.25183L56.3826 15.2903C56.7038 15.1504 57.0273 15.042 57.3502 14.9631C57.6734 14.8854 58.0203 14.8449 58.3911 14.8449ZM55.2434 24.8655C55.8085 24.8655 56.3411 24.7311 56.8413 24.4673C57.343 24.2031 57.776 23.8465 58.1387 23.4022C58.5014 22.956 58.7885 22.4534 58.9978 21.8918C59.2071 21.3303 59.3129 20.7444 59.3129 20.1349C59.3129 19.386 59.1835 18.8019 58.9254 18.3797C58.6674 17.9591 58.1898 17.7476 57.4964 17.7476C57.2692 17.7476 56.9765 17.7895 56.6135 17.8643C56.2493 17.9438 55.9233 18.1088 55.6312 18.3571L54.0339 24.7699C54.1302 24.7863 54.2154 24.802 54.288 24.8167C54.3592 24.8326 54.4379 24.8439 54.5162 24.8517C54.599 24.8606 54.6938 24.8653 54.8083 24.8653C54.9229 24.8653 55.0661 24.8655 55.2434 24.8655Z" fill="white"/>
<path d="M66.7864 27.417H63.2021L66.229 15.1056H69.8378L66.7864 27.417ZM68.5305 13.6056C68.0303 13.6056 67.5767 13.4617 67.1742 13.1732C66.7685 12.8865 66.5675 12.4452 66.5675 11.8504C66.5675 11.5232 66.6363 11.2163 66.7726 10.9267C66.9111 10.6376 67.092 10.3888 67.3186 10.1772C67.545 9.96741 67.8072 9.79978 68.105 9.67348C68.4046 9.5492 68.7234 9.48706 69.0631 9.48706C69.563 9.48706 70.0142 9.63099 70.4182 9.91943C70.8207 10.2093 71.0231 10.6507 71.0231 11.2423C71.0231 11.5706 70.9546 11.8787 70.8171 12.1677C70.6804 12.4567 70.4995 12.7056 70.2729 12.9171C70.0483 13.1273 69.7837 13.2943 69.4865 13.4195C69.1866 13.5458 68.869 13.6056 68.5305 13.6056Z" fill="white"/>
<path d="M72.9792 12.0386L76.7333 11.4764L75.8114 15.1054H79.832L79.106 17.9603H75.1097L74.0452 22.2667C73.9471 22.6257 73.8915 22.9609 73.8759 23.2725C73.8583 23.5855 73.8993 23.8543 73.9962 24.0806C74.0924 24.3075 74.2656 24.4823 74.5167 24.606C74.7667 24.7318 75.1246 24.795 75.5941 24.795C75.9807 24.795 76.3574 24.7595 76.7216 24.689C77.0837 24.6196 77.4506 24.5231 77.822 24.3968L78.0893 27.0662C77.6049 27.2378 77.0805 27.3855 76.5153 27.5098C75.9493 27.6358 75.2792 27.6965 74.5048 27.6965C73.3913 27.6965 72.528 27.5367 71.9129 27.2185C71.2988 26.898 70.8646 26.4601 70.6048 25.9058C70.3485 25.3534 70.234 24.7167 70.266 23.9994C70.2992 23.2803 70.4113 22.5245 70.6048 21.7286L72.9792 12.0386Z" fill="white"/>
<path d="M79.6748 22.5004C79.6748 21.44 79.8524 20.44 80.2073 19.5039C80.5617 18.5669 81.0721 17.7475 81.7344 17.0443C82.3943 16.3446 83.1984 15.7903 84.1447 15.3833C85.0866 14.9787 86.1412 14.7747 87.3035 14.7747C88.031 14.7747 88.6807 14.8411 89.2524 14.9744C89.8265 15.1088 90.3459 15.2825 90.8157 15.5004L89.5795 18.2172C89.2566 18.0906 88.9214 17.979 88.5749 17.8779C88.228 17.7747 87.8046 17.725 87.3038 17.725C86.1074 17.725 85.1617 18.1235 84.4578 18.918C83.7566 19.7131 83.4035 20.7834 83.4035 22.1259C83.4035 22.9215 83.5811 23.5649 83.9375 24.0571C84.2921 24.5493 84.9473 24.7941 85.8984 24.7941C86.3679 24.7941 86.8209 24.7467 87.2547 24.6542C87.6919 24.5606 88.0779 24.4427 88.4179 24.3033L88.6855 27.0883C88.2322 27.2583 87.7323 27.4118 87.1839 27.5461C86.6343 27.6759 85.98 27.7433 85.2215 27.7433C84.2201 27.7433 83.3724 27.6016 82.679 27.3227C81.9853 27.0395 81.4121 26.6635 80.9605 26.1872C80.5067 25.7097 80.1807 25.1522 79.9792 24.5123C79.7777 23.873 79.6748 23.2013 79.6748 22.5004Z" fill="white"/>
<path d="M95.5976 27.7433C94.7421 27.7433 93.999 27.6172 93.3687 27.3678C92.7402 27.1184 92.2196 26.7684 91.8079 26.3146C91.3955 25.8632 91.087 25.3282 90.8756 24.7117C90.6642 24.0955 90.5625 23.4132 90.5625 22.6655C90.5625 21.7276 90.7183 20.79 91.0331 19.855C91.3465 18.918 91.8115 18.0761 92.4268 17.3279C93.0374 16.5784 93.7906 15.9657 94.6775 15.488C95.5635 15.0134 96.5825 14.7747 97.7271 14.7747C98.567 14.7747 99.3062 14.901 99.9452 15.1504C100.581 15.3992 101.105 15.7521 101.519 16.2036C101.929 16.6573 102.24 17.19 102.449 17.8073C102.66 18.4224 102.764 19.1065 102.764 19.8548C102.764 20.7897 102.611 21.7273 102.306 22.6652C102 23.5984 101.547 24.4424 100.949 25.1924C100.352 25.9406 99.6061 26.5531 98.7097 27.0288C97.8144 27.5045 96.7763 27.7433 95.5976 27.7433ZM97.3889 17.7253C96.8576 17.7253 96.3878 17.8744 95.9857 18.1689C95.582 18.4669 95.2429 18.8415 94.9696 19.2932C94.6933 19.747 94.4885 20.2418 94.3501 20.7796C94.2128 21.3186 94.1456 21.8282 94.1456 22.3123C94.1456 23.0935 94.2759 23.7019 94.5322 24.1398C94.792 24.5753 95.2588 24.7944 95.9372 24.7944C96.4704 24.7944 96.9377 24.6464 97.3423 24.3487C97.7436 24.0531 98.0829 23.6782 98.3583 23.2256C98.6328 22.7741 98.8394 22.2779 98.9779 21.7392C99.1133 21.2019 99.1824 20.6894 99.1824 20.2062C99.1824 19.427 99.0526 18.8172 98.794 18.3799C98.5356 17.9443 98.0668 17.7253 97.3889 17.7253Z" fill="white"/>
<path d="M106.668 27.417H103.081L106.108 15.1056H109.719L106.668 27.417ZM108.41 13.6056C107.91 13.6056 107.456 13.4617 107.055 13.1732C106.651 12.8865 106.448 12.4452 106.448 11.8504C106.448 11.5232 106.518 11.2163 106.655 10.9267C106.791 10.6376 106.973 10.3888 107.2 10.1772C107.425 9.96741 107.69 9.79978 107.987 9.67348C108.285 9.5492 108.603 9.48706 108.942 9.48706C109.443 9.48706 109.896 9.63099 110.299 9.91943C110.702 10.2093 110.906 10.6507 110.906 11.2423C110.906 11.5706 110.834 11.8787 110.698 12.1677C110.563 12.4567 110.381 12.7056 110.155 12.9171C109.928 13.1273 109.666 13.2943 109.368 13.4195C109.068 13.5458 108.75 13.6056 108.41 13.6056Z" fill="white"/>
<path d="M112.303 15.6658C112.575 15.5889 112.879 15.4964 113.209 15.3959C113.541 15.2953 113.911 15.2016 114.325 15.1172C114.734 15.0302 115.196 14.9597 115.704 14.9051C116.212 14.8493 116.791 14.8221 117.435 14.8221C119.325 14.8221 120.628 15.3542 121.347 16.4152C122.066 17.4762 122.191 18.9282 121.724 20.7687L120.075 27.4162H116.468L118.065 20.9086C118.163 20.5023 118.239 20.1095 118.296 19.7257C118.353 19.3453 118.35 19.01 118.283 18.7199C118.219 18.4332 118.069 18.1985 117.836 18.0167C117.6 17.8378 117.243 17.7479 116.758 17.7479C116.291 17.7479 115.815 17.7965 115.33 17.8901L112.98 27.4159H109.371L112.303 15.6658Z" fill="white"/>
</svg>
