<svg width="25" height="21" viewBox="0 0 25 21" fill="none" xmlns="http://www.w3.org/2000/svg">
<g filter="url(#filter0_d_23_140)">
<path d="M10.5096 12.7495C10.3473 12.9102 10.126 13 9.89597 13C9.66594 13 9.4446 12.9102 9.28228 12.7495L4.38149 7.92224C3.87284 7.42131 3.87284 6.60921 4.38149 6.10912L4.99517 5.50475C5.50383 5.00381 6.32757 5.00381 6.83623 5.50475L9.89597 8.51807L18.1638 0.375703C18.6724 -0.125234 19.497 -0.125234 20.0048 0.375703L20.6185 0.980076C21.1272 1.48101 21.1272 2.29311 20.6185 2.79319L10.5096 12.7495Z" fill="#FF5D12"/>
<path d="M10.5096 12.7495C10.3473 12.9102 10.126 13 9.89597 13C9.66594 13 9.4446 12.9102 9.28228 12.7495L4.38149 7.92224C3.87284 7.42131 3.87284 6.60921 4.38149 6.10912L4.99517 5.50475C5.50383 5.00381 6.32757 5.00381 6.83623 5.50475L9.89597 8.51807L18.1638 0.375703C18.6724 -0.125234 19.497 -0.125234 20.0048 0.375703L20.6185 0.980076C21.1272 1.48101 21.1272 2.29311 20.6185 2.79319L10.5096 12.7495Z" fill="#24FF00"/>
</g>
<defs>
<filter id="filter0_d_23_140" x="0" y="0" width="25" height="21" filterUnits="userSpaceOnUse" color-interpolation-filters="sRGB">
<feFlood flood-opacity="0" result="BackgroundImageFix"/>
<feColorMatrix in="SourceAlpha" type="matrix" values="0 0 0 0 0 0 0 0 0 0 0 0 0 0 0 0 0 0 127 0" result="hardAlpha"/>
<feOffset dy="4"/>
<feGaussianBlur stdDeviation="2"/>
<feComposite in2="hardAlpha" operator="out"/>
<feColorMatrix type="matrix" values="0 0 0 0 0 0 0 0 0 0 0 0 0 0 0 0 0 0 0.25 0"/>
<feBlend mode="normal" in2="BackgroundImageFix" result="effect1_dropShadow_23_140"/>
<feBlend mode="normal" in="SourceGraphic" in2="effect1_dropShadow_23_140" result="shape"/>
</filter>
</defs>
</svg>
