<svg width="152" height="39" viewBox="0 0 152 39" fill="none" xmlns="http://www.w3.org/2000/svg">
<path d="M43.1676 21.9505C43.1676 22.2184 42.9431 22.444 42.6624 22.444H33.3575C33.5961 24.7562 35.3224 26.871 37.7644 26.871C39.4345 26.871 40.6695 26.2366 41.5958 24.8972C41.694 24.7562 41.8344 24.6575 42.0028 24.6575C42.2694 24.6575 42.4659 24.8549 42.4659 25.1228C42.4659 25.2215 42.4379 25.292 42.3958 25.3624C41.4554 26.9979 39.5889 27.8015 37.7644 27.8015C34.6347 27.8015 32.3892 24.9818 32.3892 21.9787C32.3892 18.9616 34.6206 16.1559 37.7644 16.1559C40.8941 16.1559 43.1536 18.9475 43.1676 21.9505ZM42.1712 21.5135C41.9747 19.2013 40.2064 17.0864 37.7644 17.0864C35.3224 17.0864 33.5961 19.2013 33.3575 21.5135H42.1712ZM54.4654 16.3815C54.7321 16.3815 54.9285 16.6212 54.9285 16.8468C54.9285 17.1146 54.7321 17.312 54.4654 17.312H51.9673V27.1671C51.9673 27.4068 51.7708 27.6324 51.5041 27.6324C51.2375 27.6324 51.041 27.3927 51.041 27.1671V17.312H48.6411C48.3744 17.312 48.178 17.1146 48.178 16.8468C48.178 16.6071 48.3744 16.3815 48.6411 16.3815H51.041V12.7863C51.041 12.5466 51.2234 12.3211 51.462 12.2929C51.7568 12.2647 51.9813 12.4761 51.9813 12.7581V16.3815H54.4654ZM69.7069 21.1469V27.1107C69.7069 27.3786 69.4683 27.576 69.2437 27.576C68.9771 27.576 68.7806 27.3786 68.7806 27.1107V21.1469C68.7806 19.1308 67.6438 17.1287 65.4123 17.1287C62.5493 17.1287 61.3142 19.6383 61.4827 22.2184C61.4827 22.2889 61.5107 22.585 61.5107 22.6273V27.0966C61.5107 27.3363 61.3283 27.5619 61.0897 27.5901C60.795 27.6183 60.5704 27.4068 60.5704 27.1248V7.51336C60.5704 7.27368 60.7669 7.0481 61.0336 7.0481C61.3002 7.0481 61.4967 7.28778 61.4967 7.51336V18.595C62.2967 17.1569 63.7282 16.1841 65.3983 16.1841C68.149 16.1841 69.7069 18.595 69.7069 21.1469ZM86.4219 21.9505C86.4219 22.2184 86.1974 22.444 85.9167 22.444H76.6118C76.8504 24.7562 78.5767 26.871 81.0187 26.871C82.6888 26.871 83.9238 26.2366 84.8501 24.8972C84.9483 24.7562 85.0887 24.6575 85.2571 24.6575C85.5237 24.6575 85.7202 24.8549 85.7202 25.1228C85.7202 25.2215 85.6921 25.292 85.65 25.3624C84.7097 26.9979 82.8431 27.8015 81.0187 27.8015C77.889 27.8015 75.6434 24.9818 75.6434 21.9787C75.6434 18.9616 77.8749 16.1559 81.0187 16.1559C84.1343 16.1559 86.3939 18.9475 86.4219 21.9505ZM85.4115 21.5135C85.215 19.2013 83.4466 17.0864 81.0046 17.0864C78.5767 17.0864 76.8364 19.2013 76.5978 21.5135H85.4115ZM97.846 16.8186C97.846 17.1146 97.6776 17.2838 97.4109 17.3261C94.6742 17.735 93.4392 19.9767 93.4392 22.585V27.0543C93.4392 27.294 93.2567 27.5196 93.0182 27.5478C92.7234 27.576 92.4989 27.3645 92.4989 27.0825V16.8891C92.4989 16.6494 92.6813 16.4238 92.9199 16.3956C93.2146 16.3674 93.4392 16.5789 93.4392 16.8609V18.9334C94.2111 17.6222 95.7408 16.3815 97.3408 16.3815C97.5794 16.3815 97.846 16.5507 97.846 16.8186ZM113.158 21.9505C113.158 22.2184 112.933 22.444 112.652 22.444H103.348C103.586 24.7562 105.312 26.871 107.754 26.871C109.424 26.871 110.66 26.2366 111.586 24.8972C111.684 24.7562 111.824 24.6575 111.993 24.6575C112.259 24.6575 112.456 24.8549 112.456 25.1228C112.456 25.2215 112.428 25.292 112.386 25.3624C111.445 26.9979 109.579 27.8015 107.754 27.8015C104.625 27.8015 102.379 24.9818 102.379 21.9787C102.379 18.9616 104.611 16.1559 107.754 16.1559C110.884 16.1559 113.144 18.9475 113.158 21.9505ZM112.161 21.5135C111.965 19.2013 110.196 17.0864 107.754 17.0864C105.312 17.0864 103.586 19.2013 103.348 21.5135H112.161ZM128.203 16.9314V27.1671C128.203 27.435 127.964 27.6324 127.739 27.6324C127.473 27.6324 127.276 27.435 127.276 27.1671V25.2215C126.504 26.7582 125.143 27.872 123.403 27.872C120.638 27.872 119.108 25.4611 119.108 22.9093V16.9173C119.108 16.6776 119.305 16.452 119.571 16.452C119.838 16.452 120.035 16.6917 120.035 16.9173V22.9093C120.035 24.9254 121.171 26.9274 123.403 26.9274C126.533 26.9274 127.276 23.9808 127.276 20.7239V16.9032C127.276 16.6212 127.571 16.3392 127.908 16.4661C128.076 16.5507 128.203 16.734 128.203 16.9314ZM151.767 21.1046V27.0966C151.767 27.3645 151.528 27.5619 151.303 27.5619C151.037 27.5619 150.84 27.3645 150.84 27.0966V21.1046C150.84 19.0885 149.703 17.1146 147.472 17.1146C144.665 17.1146 143.598 20.1318 143.598 22.4722V27.0966C143.598 27.3645 143.36 27.5619 143.135 27.5619C142.869 27.5619 142.672 27.3645 142.672 27.0966V21.1046C142.672 19.0885 141.535 17.1146 139.304 17.1146C136.469 17.1146 135.304 19.3564 135.402 22.3453C135.402 22.4158 135.43 22.5427 135.402 22.585V27.0825C135.402 27.3222 135.22 27.5478 134.981 27.576C134.687 27.6042 134.462 27.3927 134.462 27.1107V16.8891C134.462 16.6494 134.644 16.4238 134.883 16.3956C135.178 16.3674 135.402 16.5789 135.402 16.8609V18.5668C136.202 17.1287 137.634 16.1841 139.304 16.1841C141.199 16.1841 142.672 17.3966 143.276 19.159C144.048 17.4107 145.549 16.1841 147.472 16.1841C150.209 16.1841 151.767 18.5668 151.767 21.1046Z" fill="white"/>
<path opacity="0.6" d="M11.843 26.3503L23.5056 19.4278L11.843 14.1125L0.194336 19.4278L11.843 26.3503Z" fill="white"/>
<path d="M11.8449 14.1131V0.000244141L0.196289 19.4284L11.8449 26.3509V14.1131Z" fill="white"/>
<path d="M11.8449 14.1131V0.000244141L0.196289 19.4284L11.8449 26.3509V14.1131Z" fill="#215FFF"/>
<path d="M11.8438 26.3501L23.5064 19.4276L11.8438 -0.000488281V14.1124V26.3501Z" fill="white"/>
<path d="M11.8438 26.3501L23.5064 19.4276L11.8438 -0.000488281V14.1124V26.3501Z" fill="#215FFF"/>
<path d="M11.843 28.5632L0.194336 21.6548L11.843 38.1504V28.5632Z" fill="white"/>
<path d="M11.843 28.5632L0.194336 21.6548L11.843 38.1504V28.5632Z" fill="#215FFF"/>
<path d="M23.5064 21.6548L11.8438 28.5632V38.1504L23.5064 21.6548Z" fill="white"/>
<path d="M23.5064 21.6548L11.8438 28.5632V38.1504L23.5064 21.6548Z" fill="#215FFF"/>
</svg>
