<svg width="190" height="24" viewBox="0 0 190 24" fill="none" xmlns="http://www.w3.org/2000/svg">
<path d="M162.322 9.49908V23.9716H167.113V14.3285H184.55V23.9716H189.338V9.52417L162.322 9.49908ZM166.58 4.81756H185.002C187.561 4.32484 189.464 2.13732 190 0.0211239H161.582C162.114 2.13798 164.037 4.32484 166.58 4.81756ZM147.813 23.9809C150.229 22.9888 151.529 21.2729 152.027 19.265H130.536L130.55 0.0330161L125.733 0.0462186V23.9809H147.812H147.813ZM89.9127 4.75283H106.927C109.491 4.03092 111.645 2.13733 112.176 0.0396274H85.1496V14.1839H107.27V19.1474L89.9181 19.1606C87.1991 19.8951 84.8932 21.6705 83.743 24L85.1489 23.9749H112.022V9.48124H89.9181V4.75217L89.9127 4.75283ZM47.912 4.79841H66.3208C68.883 4.30304 70.7866 2.11817 71.3212 0H42.9102C43.4407 2.11817 45.3729 4.3037 47.9106 4.79841H47.912ZM47.9113 14.2579H66.3201C68.8823 13.7691 70.7859 11.5809 71.3205 9.46142H42.9102C43.4407 11.575 45.3736 13.7678 47.9113 14.2579ZM47.9113 23.9782H66.3201C68.8823 23.4848 70.7859 21.298 71.3205 19.1811H42.9102C43.4407 21.2986 45.3736 23.4848 47.9113 23.9782ZM0 0.0581108C0.553628 2.14986 2.42314 4.28785 4.9881 4.8235H12.7334L13.1289 4.97542V23.9313H17.9697V4.97542L18.4095 4.8235H26.1685C28.762 4.17623 30.5913 2.14986 31.1354 0.0581108V0.0118721H0V0.0581108Z" fill="white"/>
</svg>
