<svg width="27" height="19" viewBox="0 0 27 19" fill="none" xmlns="http://www.w3.org/2000/svg">
<path d="M9.44173 18.9628C9.10252 18.9628 8.76332 18.833 8.50491 18.5746L0.388704 10.4581C-0.129568 9.94011 -0.129568 9.10253 0.388704 8.5845C0.906734 8.06647 1.74407 8.06647 2.26235 8.5845L9.44173 15.7639L24.7378 0.468051C25.2558 -0.0499786 26.0932 -0.0499786 26.6114 0.468051C27.1295 0.986323 27.1295 1.82366 26.6114 2.34194L10.3788 18.5746C10.1204 18.833 9.78094 18.9628 9.44173 18.9628Z" fill="black"/>
<path d="M9.44173 18.9628C9.10252 18.9628 8.76332 18.833 8.50491 18.5746L0.388704 10.4581C-0.129568 9.94011 -0.129568 9.10253 0.388704 8.5845C0.906734 8.06647 1.74407 8.06647 2.26235 8.5845L9.44173 15.7639L24.7378 0.468051C25.2558 -0.0499786 26.0932 -0.0499786 26.6114 0.468051C27.1295 0.986323 27.1295 1.82366 26.6114 2.34194L10.3788 18.5746C10.1204 18.833 9.78094 18.9628 9.44173 18.9628Z" fill="#215FFF"/>
</svg>
